<mxfile host="app.diagrams.net" modified="2024-05-06T17:26:06.457Z" agent="Mozilla/5.0 (Windows NT 10.0; Win64; x64) AppleWebKit/537.36 (KHTML, like Gecko) Chrome/124.0.0.0 Safari/537.36" etag="ijGmWhvy7AsuqyrB8ZVT" version="24.3.1" type="device">
  <diagram name="Page-1" id="mIP37WZZdAWsjwk5EErN">
    <mxGraphModel dx="880" dy="434" grid="1" gridSize="10" guides="1" tooltips="1" connect="1" arrows="1" fold="1" page="1" pageScale="1" pageWidth="827" pageHeight="1169" math="0" shadow="0">
      <root>
        <mxCell id="0" />
        <mxCell id="1" parent="0" />
        <mxCell id="jxWZQ27bVO2dc4_9PUs3-1" value="Users" style="rounded=0;whiteSpace=wrap;html=1;" vertex="1" parent="1">
          <mxGeometry x="280" y="200" width="120" height="60" as="geometry" />
        </mxCell>
        <mxCell id="jxWZQ27bVO2dc4_9PUs3-7" style="edgeStyle=orthogonalEdgeStyle;rounded=0;orthogonalLoop=1;jettySize=auto;html=1;entryX=0.5;entryY=0;entryDx=0;entryDy=0;" edge="1" parent="1" source="jxWZQ27bVO2dc4_9PUs3-2" target="jxWZQ27bVO2dc4_9PUs3-1">
          <mxGeometry relative="1" as="geometry" />
        </mxCell>
        <mxCell id="jxWZQ27bVO2dc4_9PUs3-8" style="edgeStyle=orthogonalEdgeStyle;rounded=0;orthogonalLoop=1;jettySize=auto;html=1;entryX=0.5;entryY=0;entryDx=0;entryDy=0;" edge="1" parent="1" source="jxWZQ27bVO2dc4_9PUs3-2" target="jxWZQ27bVO2dc4_9PUs3-3">
          <mxGeometry relative="1" as="geometry" />
        </mxCell>
        <mxCell id="jxWZQ27bVO2dc4_9PUs3-9" style="edgeStyle=orthogonalEdgeStyle;rounded=0;orthogonalLoop=1;jettySize=auto;html=1;entryX=0.5;entryY=0;entryDx=0;entryDy=0;" edge="1" parent="1" source="jxWZQ27bVO2dc4_9PUs3-2" target="jxWZQ27bVO2dc4_9PUs3-4">
          <mxGeometry relative="1" as="geometry" />
        </mxCell>
        <mxCell id="jxWZQ27bVO2dc4_9PUs3-2" value="Posts" style="rounded=0;whiteSpace=wrap;html=1;" vertex="1" parent="1">
          <mxGeometry x="280" y="80" width="120" height="60" as="geometry" />
        </mxCell>
        <mxCell id="jxWZQ27bVO2dc4_9PUs3-3" value="Likes" style="rounded=0;whiteSpace=wrap;html=1;" vertex="1" parent="1">
          <mxGeometry x="520" y="200" width="120" height="60" as="geometry" />
        </mxCell>
        <mxCell id="jxWZQ27bVO2dc4_9PUs3-4" value="Comments" style="rounded=0;whiteSpace=wrap;html=1;" vertex="1" parent="1">
          <mxGeometry x="40" y="200" width="120" height="60" as="geometry" />
        </mxCell>
      </root>
    </mxGraphModel>
  </diagram>
</mxfile>
